<svg width="43" height="52" viewBox="0 0 43 52" fill="none" xmlns="http://www.w3.org/2000/svg">
<path fill-rule="evenodd" clip-rule="evenodd" d="M19.823 0.0734292C17.1778 0.500059 14.7758 1.7376 12.9797 3.5989C11.5279 5.10341 10.83 6.24493 10.2279 8.09969C9.84523 9.27857 9.56375 11.3395 9.6736 12.159L9.74353 12.6801H7.72794C5.42749 12.6801 4.93156 12.7838 3.96019 13.4678C3.1452 14.0417 2.49335 14.98 2.25422 15.9235C2.02115 16.8433 -0.0705415 46.5491 0.0018347 47.912C0.0885232 49.5461 0.99567 50.8888 2.50743 51.621L3.28995 52H21.5004H39.7108L40.4933 51.621C41.9992 50.8915 42.9078 49.5403 42.9982 47.8955C43.0701 46.586 40.9797 16.8429 40.753 15.9518C40.3982 14.5566 39.1855 13.2577 37.8627 12.856C37.4524 12.7315 36.7167 12.6801 35.344 12.6801H33.4047L33.2728 11.2142C32.9846 8.01058 31.8463 5.52587 29.6871 3.38689C27.5077 1.22792 24.9366 0.111619 21.9076 0.00954188C21.1396 -0.0163938 20.2015 0.012397 19.823 0.0734292ZM23.524 4.11083C26.9001 4.99371 29.2763 7.96513 29.4964 11.5796L29.5634 12.6801H21.5004H13.4373L13.5043 11.5796C13.7225 7.99642 16.0938 5.01037 19.431 4.11642C20.5969 3.804 22.3416 3.80162 23.524 4.11083ZM9.73923 21.5335C9.71712 26.5673 9.7177 26.581 9.97695 27.0099C10.661 28.1416 12.2755 28.2027 13.078 27.1273L13.4133 26.678L13.446 21.5826L13.4787 16.4871H21.5004H29.522L29.5547 21.5826L29.5874 26.678L29.9135 27.1148C30.3235 27.6645 30.7795 27.9084 31.3967 27.9084C32.0678 27.9084 32.6369 27.599 33.0013 27.0361L33.3109 26.5579L33.3448 21.5226L33.3787 16.4871H35.0389C36.2545 16.4871 36.7571 16.5305 36.9153 16.6488C37.1141 16.7973 37.2197 18.0698 38.2111 32.2544C38.9514 42.8461 39.2546 47.7665 39.1766 47.9157C39.0669 48.1252 38.3981 48.1334 21.4937 48.1334H3.92493L3.81287 47.8658C3.73526 47.6804 4.03442 42.8641 4.78588 32.2036C5.78006 18.1015 5.88921 16.7955 6.08632 16.6481C6.24446 16.5299 6.76133 16.4871 8.03152 16.4871H9.76134L9.73923 21.5335Z" fill="black"/>
</svg>
