<svg width="136" height="31" viewBox="0 0 136 31" fill="none" xmlns="http://www.w3.org/2000/svg">
<circle cx="15.5" cy="15.5" r="15.5" fill="black"/>
<path d="M64.4304 8.45455V23H61.7741L55.446 13.8452H55.3395V23H52.2642V8.45455H54.9631L61.2415 17.6023H61.3693V8.45455H64.4304ZM66.9712 23V8.45455H76.7724V10.9901H70.0465V14.456H76.2681V16.9915H70.0465V20.4645H76.8008V23H66.9712ZM82.1009 8.45455L85.0341 13.4119H85.1477L88.0952 8.45455H91.5682L87.1293 15.7273L91.6676 23H88.1307L85.1477 18.0355H85.0341L82.0511 23H78.5284L83.081 15.7273L78.6136 8.45455H82.1009ZM92.9602 10.9901V8.45455H104.906V10.9901H100.453V23H97.4134V10.9901H92.9602ZM107.902 23.1847C107.433 23.1847 107.03 23.0189 106.694 22.6875C106.363 22.3513 106.197 21.9489 106.197 21.4801C106.197 21.0161 106.363 20.6184 106.694 20.2869C107.03 19.9555 107.433 19.7898 107.902 19.7898C108.356 19.7898 108.754 19.9555 109.095 20.2869C109.436 20.6184 109.606 21.0161 109.606 21.4801C109.606 21.7926 109.526 22.0791 109.365 22.3395C109.208 22.5952 109.002 22.8011 108.747 22.9574C108.491 23.1089 108.209 23.1847 107.902 23.1847ZM117.971 8.45455H121.011V18.5966C121.011 19.5341 120.8 20.3485 120.379 21.0398C119.962 21.7311 119.382 22.2637 118.638 22.6378C117.895 23.0118 117.031 23.1989 116.046 23.1989C115.17 23.1989 114.375 23.045 113.66 22.7372C112.95 22.4247 112.386 21.9512 111.969 21.3168C111.553 20.6776 111.347 19.875 111.352 18.9091H114.413C114.422 19.2926 114.5 19.6217 114.647 19.8963C114.799 20.1662 115.004 20.3745 115.265 20.5213C115.53 20.6634 115.843 20.7344 116.202 20.7344C116.581 20.7344 116.901 20.6539 117.161 20.4929C117.426 20.3272 117.628 20.0857 117.765 19.7685C117.902 19.4512 117.971 19.0606 117.971 18.5966V8.45455ZM131.444 12.6378C131.387 12.0649 131.143 11.6198 130.712 11.3026C130.281 10.9853 129.697 10.8267 128.958 10.8267C128.456 10.8267 128.032 10.8977 127.687 11.0398C127.341 11.1771 127.076 11.3688 126.891 11.6151C126.711 11.8613 126.621 12.1406 126.621 12.4531C126.612 12.7135 126.666 12.9408 126.785 13.1349C126.908 13.3291 127.076 13.4972 127.289 13.6392C127.502 13.7765 127.748 13.8973 128.028 14.0014C128.307 14.1009 128.605 14.1861 128.923 14.2571L130.229 14.5696C130.864 14.7116 131.446 14.901 131.977 15.1378C132.507 15.3745 132.966 15.6657 133.354 16.0114C133.743 16.357 134.043 16.7642 134.256 17.233C134.474 17.7017 134.585 18.2391 134.59 18.8452C134.585 19.7353 134.358 20.5071 133.908 21.1605C133.463 21.8092 132.819 22.3134 131.977 22.6733C131.138 23.0284 130.128 23.206 128.944 23.206C127.77 23.206 126.747 23.026 125.876 22.6662C125.009 22.3063 124.332 21.7737 123.844 21.0682C123.362 20.358 123.108 19.4796 123.085 18.4332H126.06C126.094 18.9209 126.233 19.3281 126.479 19.6548C126.73 19.9768 127.064 20.2206 127.481 20.3864C127.902 20.5473 128.378 20.6278 128.908 20.6278C129.429 20.6278 129.881 20.5521 130.265 20.4006C130.653 20.2491 130.954 20.0384 131.167 19.7685C131.38 19.4986 131.487 19.1884 131.487 18.8381C131.487 18.5114 131.389 18.2367 131.195 18.0142C131.006 17.7917 130.727 17.6023 130.357 17.446C129.993 17.2898 129.545 17.1477 129.015 17.0199L127.431 16.6222C126.205 16.3239 125.237 15.8575 124.526 15.223C123.816 14.5885 123.463 13.7339 123.468 12.6591C123.463 11.7784 123.698 11.009 124.171 10.3509C124.649 9.69271 125.305 9.17898 126.138 8.80966C126.972 8.44034 127.919 8.25568 128.979 8.25568C130.059 8.25568 131.001 8.44034 131.806 8.80966C132.616 9.17898 133.246 9.69271 133.695 10.3509C134.145 11.009 134.377 11.7713 134.391 12.6378H131.444Z" fill="black"/>
</svg>
